<?xml version="1.0" standalone="no"?>
<!DOCTYPE svg PUBLIC "-//W3C//DTD SVG 20010904//EN"
 "http://www.w3.org/TR/2001/REC-SVG-20010904/DTD/svg10.dtd">
<svg version="1.0" xmlns="http://www.w3.org/2000/svg"
 width="560.000000pt" height="560.000000pt" viewBox="0 0 560.000000 560.000000"
 preserveAspectRatio="xMidYMid meet">
<metadata>
Created by potrace 1.14, written by Peter Selinger 2001-2017
</metadata>
<g transform="translate(0.000000,560.000000) scale(0.100000,-0.100000)"
fill="#000000" stroke="none">
<path d="M1168 4616 c-118 -42 -160 -137 -104 -231 l25 -40 -22 -25 -22 -25
26 23 26 22 44 -20 c63 -28 153 -27 210 3 39 21 80 66 92 100 2 8 35 -2 96
-31 93 -42 93 -42 87 -17 -5 20 -3 25 11 25 14 0 15 2 4 9 -8 6 -11 16 -6 31
7 22 5 22 -36 17 -155 -22 -149 -22 -149 8 0 110 -159 195 -282 151z m167 -25
c79 -36 113 -98 90 -164 -17 -50 -29 -62 -82 -88 -126 -61 -288 9 -288 124 0
54 26 90 89 122 61 30 133 33 191 6z"/>
<path d="M1160 4527 c-18 -9 -26 -22 -28 -45 -4 -41 12 -62 48 -62 44 0 60 10
60 36 0 20 -5 24 -31 24 -31 0 -32 -20 -1 -20 15 -1 15 -2 -2 -15 -40 -31 -79
33 -40 66 13 10 19 10 36 0 26 -16 39 -3 14 15 -24 17 -25 17 -56 1z"/>
<path d="M1280 4527 c-49 -25 -30 -107 26 -107 38 0 54 11 54 36 0 19 -5 24
-25 24 -14 0 -25 -4 -25 -10 0 -5 7 -10 15 -10 8 0 15 -4 15 -10 0 -5 -13 -10
-29 -10 -34 0 -48 27 -31 60 11 20 50 28 50 10 0 -5 8 -10 18 -10 14 1 13 4
-7 20 -27 23 -28 24 -61 7z"/>
<path d="M3337 4414 c-4 -4 -7 -12 -7 -18 0 -6 5 -5 12 2 7 7 18 12 25 12 22
0 15 -35 -12 -60 -33 -31 -32 -40 8 -40 30 -1 31 -1 13 -15 -11 -8 -28 -15
-38 -15 -10 0 -18 -2 -18 -5 0 -3 30 -34 67 -69 l67 -63 -52 -13 c-43 -10 -55
-10 -69 1 -15 12 -15 12 -6 -4 8 -15 3 -25 -22 -50 -18 -18 -34 -37 -36 -43
-2 -6 -21 -14 -41 -18 -34 -6 -38 -5 -38 13 0 35 -30 98 -60 124 -16 14 -46
29 -67 33 -66 12 -66 18 9 62 63 39 74 42 94 31 13 -7 21 -16 18 -21 -3 -4 2
-8 11 -8 9 0 14 4 10 9 -3 5 5 17 17 25 12 9 17 16 11 16 -6 0 -16 -6 -22 -14
-10 -12 -20 -10 -62 17 -28 17 -57 40 -65 52 -14 19 -16 19 -25 3 -5 -10 -18
-18 -27 -19 -16 0 -16 -1 0 -7 15 -6 13 -14 -15 -66 -30 -55 -36 -61 -86 -77
-103 -33 -149 -92 -136 -174 22 -150 254 -199 358 -76 15 18 27 39 27 47 0 8
7 14 15 14 27 0 65 -23 65 -39 0 -9 9 -34 20 -56 11 -22 20 -42 20 -46 0 -3
-39 -24 -86 -45 l-86 -38 -40 44 -39 45 6 -70 c9 -106 13 -119 31 -105 8 7 29
14 46 16 18 2 35 10 40 16 5 10 11 8 21 -6 13 -18 18 -14 66 57 28 43 53 77
54 77 2 0 22 -9 45 -20 87 -42 211 -18 268 54 24 30 29 46 29 91 0 30 -2 55
-5 55 -3 0 -14 14 -23 30 -20 34 -73 64 -129 74 -21 4 -38 12 -39 19 0 7 -3
21 -5 32 -2 11 -5 28 -6 38 -1 9 -5 17 -9 17 -3 0 -6 10 -7 23 0 49 -11 63
-48 59 -41 -5 -42 -1 -8 33 14 14 24 33 22 43 -3 17 -48 29 -61 16z m-257
-256 c157 -80 95 -269 -88 -271 -107 -1 -182 61 -182 150 0 109 155 179 270
121z m470 -60 c82 -42 113 -126 70 -195 -50 -82 -202 -102 -286 -38 -29 22
-62 80 -52 90 3 3 21 -2 41 -10 45 -19 164 -18 171 2 7 18 45 17 52 -2 4 -8
12 -15 19 -15 10 0 8 14 -8 55 -28 71 -47 71 -73 3 -17 -47 -19 -50 -22 -25
-3 21 -9 27 -28 27 -13 0 -24 -4 -24 -10 0 -5 7 -10 15 -10 8 0 15 -4 15 -10
0 -17 -49 -11 -58 8 -13 24 3 62 27 62 11 0 23 -4 26 -10 8 -13 25 -13 25 0 0
20 -45 28 -99 18 -29 -5 -56 -7 -59 -4 -10 11 51 66 83 75 55 17 119 12 165
-11z m-20 -108 c0 -5 -4 -10 -10 -10 -5 0 -10 5 -10 10 0 6 5 10 10 10 6 0 10
-4 10 -10z m-366 -235 c16 -12 17 -15 4 -15 -8 0 -21 7 -28 15 -16 19 -1 19
24 0z"/>
<path d="M2910 4091 c-6 -12 -18 -40 -25 -62 -12 -34 -12 -39 0 -39 8 0 15 7
15 15 0 21 40 19 56 -2 22 -31 28 -5 9 39 -28 64 -40 75 -55 49z m24 -36 c3
-8 1 -15 -4 -15 -6 0 -10 7 -10 15 0 8 2 15 4 15 2 0 6 -7 10 -15z"/>
<path d="M3010 4092 c-43 -35 -23 -102 30 -102 44 0 60 10 60 36 0 20 -5 24
-30 24 -16 0 -30 -4 -30 -10 0 -5 7 -10 15 -10 8 0 15 -5 15 -11 0 -6 -12 -9
-27 -7 -22 2 -29 9 -31 29 -4 36 22 57 50 40 26 -16 39 -3 14 15 -26 18 -39
18 -66 -4z"/>
<path d="M1688 4393 c7 -3 16 -2 19 1 4 3 -2 6 -13 5 -11 0 -14 -3 -6 -6z"/>
<path d="M1738 4383 c6 -2 18 -2 25 0 6 3 1 5 -13 5 -14 0 -19 -2 -12 -5z"/>
<path d="M1798 4373 c7 -3 16 -2 19 1 4 3 -2 6 -13 5 -11 0 -14 -3 -6 -6z"/>
<path d="M2067 4374 c-14 -14 -7 -26 8 -14 20 16 40 3 24 -17 -10 -12 -10 -16
1 -23 7 -4 10 -15 7 -24 -7 -18 -23 -21 -32 -6 -3 6 -11 10 -17 10 -7 0 -6 -6
2 -15 7 -8 20 -15 30 -15 23 0 44 26 34 41 -4 7 -7 24 -8 38 -1 18 -7 27 -21
29 -12 2 -24 0 -28 -4z"/>
<path d="M1838 4363 c7 -3 16 -2 19 1 4 3 -2 6 -13 5 -11 0 -14 -3 -6 -6z"/>
<path d="M1888 4353 c7 -3 16 -2 19 1 4 3 -2 6 -13 5 -11 0 -14 -3 -6 -6z"/>
<path d="M1928 4343 c7 -3 16 -2 19 1 4 3 -2 6 -13 5 -11 0 -14 -3 -6 -6z"/>
<path d="M3284 4334 c-18 -14 -18 -14 6 -3 31 14 36 19 24 19 -6 0 -19 -7 -30
-16z"/>
<path d="M2018 4323 c7 -3 16 -2 19 1 4 3 -2 6 -13 5 -11 0 -14 -3 -6 -6z"/>
<path d="M2178 4283 c7 -3 16 -2 19 1 4 3 -2 6 -13 5 -11 0 -14 -3 -6 -6z"/>
<path d="M999 4253 c-13 -16 -12 -17 4 -4 9 7 17 15 17 17 0 8 -8 3 -21 -13z"/>
<path d="M2328 4243 c7 -3 16 -2 19 1 4 3 -2 6 -13 5 -11 0 -14 -3 -6 -6z"/>
<path d="M3270 4186 c0 -2 8 -10 18 -17 15 -13 16 -12 3 4 -13 16 -21 21 -21
13z"/>
<path d="M3943 4073 c26 -2 68 -2 95 0 26 2 4 3 -48 3 -52 0 -74 -1 -47 -3z"/>
<path d="M3843 4063 c9 -2 25 -2 35 0 9 3 1 5 -18 5 -19 0 -27 -2 -17 -5z"/>
<path d="M4123 4063 c9 -2 25 -2 35 0 9 3 1 5 -18 5 -19 0 -27 -2 -17 -5z"/>
<path d="M3773 4053 c9 -2 25 -2 35 0 9 3 1 5 -18 5 -19 0 -27 -2 -17 -5z"/>
<path d="M4198 4053 c7 -3 16 -2 19 1 4 3 -2 6 -13 5 -11 0 -14 -3 -6 -6z"/>
<path d="M3690 4040 c-20 -6 -21 -8 -5 -8 11 0 31 4 45 8 20 6 21 8 5 8 -11 0
-31 -4 -45 -8z"/>
<path d="M4238 4043 c7 -3 16 -2 19 1 4 3 -2 6 -13 5 -11 0 -14 -3 -6 -6z"/>
<path d="M4380 3996 c0 -2 7 -7 16 -10 8 -3 12 -2 9 4 -6 10 -25 14 -25 6z"/>
<path d="M727 3984 c-4 -4 -7 -12 -7 -18 0 -6 5 -5 12 2 7 7 18 12 25 12 17 0
17 -27 1 -33 -10 -3 -8 -9 4 -18 13 -10 15 -18 8 -29 -8 -13 -13 -13 -31 -2
-18 11 -20 11 -17 0 3 -7 16 -14 30 -16 19 -2 28 2 33 17 3 12 3 26 -1 33 -5
7 -8 22 -9 33 0 20 -34 33 -48 19z"/>
<path d="M3937 3924 c-3 -4 -3 -19 0 -35 4 -24 2 -29 -13 -29 -14 0 -15 3 -6
12 7 7 12 17 12 23 -1 11 -30 -25 -30 -37 0 -4 9 -8 20 -8 11 0 20 -7 20 -15
0 -21 18 -19 22 2 2 10 1 34 0 55 -4 36 -11 46 -25 32z"/>
<path d="M4863 3923 c9 -2 25 -2 35 0 9 3 1 5 -18 5 -19 0 -27 -2 -17 -5z"/>
<path d="M3728 3913 c7 -3 16 -2 19 1 4 3 -2 6 -13 5 -11 0 -14 -3 -6 -6z"/>
<path d="M4510 3916 c0 -2 8 -10 18 -17 15 -13 16 -12 3 4 -13 16 -21 21 -21
13z"/>
<path d="M5017 3914 c-4 -4 -7 -12 -7 -18 0 -6 5 -5 12 2 7 7 18 12 25 12 17
0 17 -26 1 -34 -10 -5 -10 -7 0 -12 15 -7 16 -30 2 -39 -6 -4 -18 -1 -27 7
-14 11 -16 11 -11 -2 2 -8 14 -16 25 -18 26 -4 48 22 38 45 -4 10 -8 27 -9 38
-1 20 -35 33 -49 19z"/>
<path d="M3768 3903 c7 -3 16 -2 19 1 4 3 -2 6 -13 5 -11 0 -14 -3 -6 -6z"/>
<path d="M4775 3900 c-3 -6 1 -7 9 -4 18 7 21 14 7 14 -6 0 -13 -4 -16 -10z"/>
<path d="M4590 3891 c0 -6 -6 -11 -14 -11 -8 0 -16 -7 -20 -15 -3 -8 -12 -15
-21 -15 -28 0 -15 -15 55 -60 38 -25 70 -52 69 -60 0 -8 -17 -28 -37 -45 -39
-30 -40 -34 -43 -108 -3 -53 23 -100 71 -130 37 -23 43 -25 106 -34 40 -5 58
1 148 50 16 8 63 19 105 22 42 4 79 9 84 12 4 2 -2 17 -13 32 -10 16 -17 31
-13 34 3 3 3 14 -1 23 -5 13 -17 6 -65 -35 l-59 -51 4 57 c10 117 -68 187
-201 181 -66 -3 -70 -2 -73 20 -2 12 -7 22 -12 22 -4 0 -18 25 -30 55 -21 53
-40 79 -40 56z m255 -184 c39 -19 75 -61 86 -99 22 -84 -48 -164 -154 -175
-65 -7 -112 13 -157 63 -50 58 -37 146 29 193 53 38 140 46 196 18z"/>
<path d="M4696 3642 c-2 -4 -14 -31 -25 -60 -16 -41 -18 -52 -7 -52 8 0 16 7
20 15 3 8 14 15 25 15 10 0 21 -7 25 -15 3 -8 15 -15 26 -15 11 0 23 7 26 15
4 8 17 15 30 15 15 0 24 -6 24 -15 0 -8 7 -15 15 -15 19 0 20 -3 -11 65 -28
65 -37 64 -65 -8 l-17 -42 -20 46 c-21 48 -37 66 -46 51z m24 -53 c0 -5 -4 -9
-10 -9 -5 0 -10 7 -10 16 0 8 5 12 10 9 6 -3 10 -10 10 -16z m96 -6 c-10 -10
-19 5 -10 18 6 11 8 11 12 0 2 -7 1 -15 -2 -18z"/>
<path d="M3858 3883 c7 -3 16 -2 19 1 4 3 -2 6 -13 5 -11 0 -14 -3 -6 -6z"/>
<path d="M4724 3858 l-29 -33 33 29 c17 17 32 31 32 33 0 8 -8 1 -36 -29z"/>
<path d="M4048 3833 c7 -3 16 -2 19 1 4 3 -2 6 -13 5 -11 0 -14 -3 -6 -6z"/>
<path d="M4118 3813 c7 -3 16 -2 19 1 4 3 -2 6 -13 5 -11 0 -14 -3 -6 -6z"/>
<path d="M4188 3793 c7 -3 16 -2 19 1 4 3 -2 6 -13 5 -11 0 -14 -3 -6 -6z"/>
<path d="M3080 3658 c-25 -22 -31 -31 -15 -19 51 36 69 51 64 55 -2 2 -24 -14
-49 -36z"/>
<path d="M3009 3593 c-13 -16 -12 -17 4 -4 16 13 21 21 13 21 -2 0 -10 -8 -17
-17z"/>
<path d="M575 3486 c6 -79 4 -96 -7 -96 -8 0 -37 -7 -66 -15 -130 -39 -171
-181 -76 -265 47 -41 76 -51 146 -51 42 -1 69 5 94 20 19 12 39 21 43 21 5 0
32 -31 62 -70 29 -38 56 -70 60 -70 4 0 9 9 12 21 4 13 10 18 18 13 8 -5 10
-3 4 6 -5 8 0 19 14 29 21 16 20 17 -63 44 -47 16 -88 32 -91 37 -3 5 4 24 15
42 54 88 -6 202 -119 224 -17 4 -31 12 -31 18 0 6 18 44 40 85 22 41 38 76 37
77 -1 1 -18 4 -38 7 -20 2 -42 8 -49 12 -10 6 -11 -13 -5 -89z m85 -139 c62
-31 96 -97 81 -155 -15 -54 -54 -89 -118 -108 -143 -42 -279 78 -219 194 43
84 163 116 256 69z"/>
<path d="M485 3275 c-29 -28 -31 -42 -9 -73 28 -41 117 -21 100 23 -6 17 -56
21 -56 5 0 -5 7 -10 15 -10 18 0 20 -17 3 -23 -25 -8 -48 13 -48 44 0 35 23
48 52 30 27 -16 38 -3 14 15 -28 20 -43 18 -71 -11z"/>
<path d="M585 3290 c-3 -5 3 -10 14 -10 18 0 21 -6 21 -50 0 -27 5 -50 10 -50
6 0 10 23 10 50 0 44 3 50 21 50 11 0 17 5 14 10 -3 6 -24 10 -45 10 -21 0
-42 -4 -45 -10z"/>
<path d="M2900 3493 l-65 -68 68 65 c37 35 67 66 67 67 0 8 -10 -2 -70 -64z"/>
<path d="M4796 3348 c-3 -29 -9 -70 -13 -92 -6 -37 -5 -38 17 -26 12 7 35 9
51 6 16 -3 29 -1 29 4 0 12 -68 160 -73 160 -2 0 -7 -24 -11 -52z"/>
<path d="M2704 3298 l-29 -33 33 29 c30 28 37 36 29 36 -2 0 -16 -15 -33 -32z"/>
<path d="M2564 3148 l-19 -23 23 19 c21 18 27 26 19 26 -2 0 -12 -10 -23 -22z"/>
<path d="M4317 2954 c-15 -15 -6 -24 13 -12 14 9 22 10 31 1 8 -8 2 -20 -20
-46 -17 -19 -31 -37 -31 -41 0 -3 17 -5 38 -5 31 2 33 3 8 6 l-28 5 27 28 c32
34 30 64 -5 68 -14 2 -29 0 -33 -4z"/>
<path d="M990 2916 c0 -3 9 -10 20 -16 11 -6 20 -8 20 -6 0 3 -9 10 -20 16
-11 6 -20 8 -20 6z"/>
<path d="M4737 2894 c-4 -4 -7 -12 -7 -18 0 -6 5 -5 12 2 7 7 18 12 25 12 23
0 14 -33 -19 -67 l-32 -33 45 1 c29 1 35 3 17 6 -34 5 -35 10 -2 40 14 13 24
31 22 41 -3 17 -48 29 -61 16z"/>
<path d="M1040 2886 c0 -3 9 -10 20 -16 11 -6 20 -8 20 -6 0 3 -9 10 -20 16
-11 6 -20 8 -20 6z"/>
<path d="M3751 2690 c14 -31 19 -36 19 -24 0 6 -7 19 -16 30 -14 18 -14 18 -3
-6z"/>
<path d="M4159 2663 c-13 -16 -12 -17 4 -4 9 7 17 15 17 17 0 8 -8 3 -21 -13z"/>
<path d="M1480 2660 c8 -5 20 -10 25 -10 6 0 3 5 -5 10 -8 5 -19 10 -25 10 -5
0 -3 -5 5 -10z"/>
<path d="M1550 2630 c8 -5 20 -10 25 -10 6 0 3 5 -5 10 -8 5 -19 10 -25 10 -5
0 -3 -5 5 -10z"/>
<path d="M2010 2630 c-49 -9 -90 -32 -125 -72 -25 -29 -30 -42 -28 -81 4 -90
56 -148 149 -167 l56 -12 -6 -61 c-4 -34 -9 -77 -13 -96 -5 -30 -4 -32 13 -23
11 5 34 8 52 7 17 -1 32 -1 32 0 0 2 -16 36 -35 76 -44 93 -44 105 0 112 44 7
91 40 110 78 9 16 22 29 31 29 8 0 46 -16 84 -35 38 -19 72 -35 75 -35 3 0 5
14 5 31 0 17 5 39 10 50 11 19 8 19 -85 13 l-95 -7 0 38 c0 44 -26 91 -68 122
-35 26 -113 41 -162 33z m142 -42 c24 -14 45 -37 58 -63 25 -51 25 -59 0 -113
-16 -36 -29 -47 -76 -69 -73 -33 -137 -29 -197 13 -172 122 28 337 215 232z"/>
<path d="M1945 2540 c-3 -5 3 -10 14 -10 18 0 21 -6 21 -50 0 -27 5 -50 10
-50 6 0 10 23 10 50 0 44 3 50 21 50 11 0 17 5 14 10 -3 6 -24 10 -45 10 -21
0 -42 -4 -45 -10z"/>
<path d="M2079 2543 c-9 -2 -22 -15 -30 -29 -11 -22 -11 -30 2 -52 12 -22 22
-27 54 -27 36 0 40 3 43 28 3 23 0 27 -22 27 -14 0 -26 -4 -26 -10 0 -5 7 -10
15 -10 8 0 15 -5 15 -11 0 -6 -12 -9 -27 -7 -23 2 -29 8 -31 36 -4 38 19 52
50 33 27 -16 38 -3 14 15 -20 14 -28 15 -57 7z"/>
<path d="M3820 2600 c0 -5 5 -10 11 -10 5 0 7 5 4 10 -3 6 -8 10 -11 10 -2 0
-4 -4 -4 -10z"/>
<path d="M4089 2583 c-13 -16 -12 -17 4 -4 16 13 21 21 13 21 -2 0 -10 -8 -17
-17z"/>
<path d="M3716 2565 c4 -11 15 -42 25 -70 26 -69 25 -95 -3 -95 -43 0 -102
-43 -126 -90 -20 -40 -27 -46 -65 -51 l-42 -6 41 -1 c40 -2 42 -3 48 -40 3
-22 15 -51 26 -65 11 -14 20 -29 20 -34 0 -5 28 -17 61 -27 57 -17 77 -17 141
-1 21 5 31 -3 74 -62 28 -37 54 -76 57 -85 4 -10 14 -18 23 -18 9 0 26 -10 38
-23 20 -22 53 -27 41 -6 -7 10 32 149 45 162 4 5 22 1 39 -7 25 -13 31 -23 31
-48 l0 -31 50 44 c87 77 119 101 130 94 8 -5 7 -11 -1 -22 -10 -12 -10 -16 1
-23 7 -4 10 -15 7 -24 -7 -18 -23 -21 -32 -6 -3 6 -11 10 -17 10 -7 0 -6 -6 2
-15 27 -32 82 -4 62 31 -5 9 -7 25 -5 35 3 11 -1 21 -11 25 -12 4 -13 10 -6
24 16 29 12 113 -6 138 -13 18 -13 26 -3 38 10 12 9 13 -3 9 -8 -3 -31 4 -51
15 -20 12 -60 24 -89 27 -103 10 -178 -57 -188 -167 -5 -54 -4 -56 39 -98 43
-42 43 -43 25 -64 -35 -37 -92 -79 -98 -69 -3 5 9 18 26 30 l33 20 -40 17
c-22 9 -63 26 -92 38 l-52 22 37 40 c34 36 37 44 36 95 -1 36 -9 67 -23 89
-11 19 -21 38 -21 42 0 4 26 21 58 38 31 17 68 39 82 50 l25 18 -28 7 c-27 7
-27 8 -10 28 18 19 18 20 -4 6 -20 -12 -24 -11 -37 6 -13 17 -15 18 -16 3 0
-9 -6 -23 -13 -30 -8 -7 -17 -25 -20 -40 -4 -15 -17 -39 -30 -53 -22 -26 -23
-26 -59 -11 -21 9 -47 16 -58 16 -25 0 -25 8 0 98 11 39 20 75 20 79 0 5 -22
8 -50 8 -45 0 -49 -2 -44 -20z m139 -204 c43 -25 75 -77 75 -124 0 -106 -125
-177 -233 -132 -106 44 -121 193 -24 250 61 36 124 38 182 6z m436 -33 c25
-14 46 -37 59 -63 24 -50 25 -76 4 -120 -14 -30 -23 -35 -72 -45 -32 -6 -77
-15 -102 -20 -37 -7 -50 -5 -76 11 -32 20 -39 30 -55 83 -18 61 21 132 89 162
44 20 110 16 153 -8z"/>
<path d="M3713 2298 c-15 -21 -43 -101 -37 -107 3 -3 11 2 18 12 7 9 21 17 31
17 10 0 24 -8 31 -17 24 -34 25 -5 0 51 -27 60 -29 62 -43 44z m21 -43 c3 -9
0 -15 -9 -15 -9 0 -12 6 -9 15 4 8 7 15 9 15 2 0 5 -7 9 -15z"/>
<path d="M3770 2300 c-12 -8 -11 -10 8 -10 20 0 22 -5 22 -50 0 -38 4 -50 15
-50 11 0 15 12 15 50 0 39 4 50 16 50 8 0 12 5 9 10 -8 13 -65 13 -85 0z"/>
<path d="M4115 2270 c-3 -5 3 -10 14 -10 18 0 21 -6 21 -50 0 -27 5 -50 10
-50 6 0 10 23 10 50 0 44 3 50 21 50 11 0 17 5 14 10 -3 6 -24 10 -45 10 -21
0 -42 -4 -45 -10z"/>
<path d="M4237 2272 c-3 -4 -15 -31 -26 -60 -16 -41 -18 -52 -7 -52 8 0 16 7
20 15 7 20 36 19 52 -2 22 -31 27 -6 9 41 -18 48 -39 73 -48 58z m23 -53 c0
-5 -4 -9 -10 -9 -5 0 -10 7 -10 16 0 8 5 12 10 9 6 -3 10 -10 10 -16z"/>
<path d="M4569 2523 c-13 -16 -12 -17 4 -4 9 7 17 15 17 17 0 8 -8 3 -21 -13z"/>
<path d="M2438 2393 c7 -3 16 -2 19 1 4 3 -2 6 -13 5 -11 0 -14 -3 -6 -6z"/>
<path d="M4419 2373 l-24 -28 28 24 c25 23 32 31 24 31 -2 0 -14 -12 -28 -27z"/>
<path d="M2498 2383 c7 -3 16 -2 19 1 4 3 -2 6 -13 5 -11 0 -14 -3 -6 -6z"/>
<path d="M2558 2373 c6 -2 18 -2 25 0 6 3 1 5 -13 5 -14 0 -19 -2 -12 -5z"/>
<path d="M2618 2363 c6 -2 18 -2 25 0 6 3 1 5 -13 5 -14 0 -19 -2 -12 -5z"/>
<path d="M2678 2353 c6 -2 18 -2 25 0 6 3 1 5 -13 5 -14 0 -19 -2 -12 -5z"/>
<path d="M2753 2343 c9 -2 23 -2 30 0 6 3 -1 5 -18 5 -16 0 -22 -2 -12 -5z"/>
<path d="M2823 2333 c9 -2 23 -2 30 0 6 3 -1 5 -18 5 -16 0 -22 -2 -12 -5z"/>
<path d="M2898 2323 c6 -2 18 -2 25 0 6 3 1 5 -13 5 -14 0 -19 -2 -12 -5z"/>
<path d="M2973 2313 c9 -2 23 -2 30 0 6 3 -1 5 -18 5 -16 0 -22 -2 -12 -5z"/>
<path d="M3043 2303 c9 -2 25 -2 35 0 9 3 1 5 -18 5 -19 0 -27 -2 -17 -5z"/>
<path d="M3133 2293 c9 -2 25 -2 35 0 9 3 1 5 -18 5 -19 0 -27 -2 -17 -5z"/>
<path d="M3228 2283 c12 -2 30 -2 40 0 9 3 -1 5 -23 4 -22 0 -30 -2 -17 -4z"/>
<path d="M3323 2273 c9 -2 25 -2 35 0 9 3 1 5 -18 5 -19 0 -27 -2 -17 -5z"/>
<path d="M3418 2263 c12 -2 32 -2 45 0 12 2 2 4 -23 4 -25 0 -35 -2 -22 -4z"/>
<path d="M3534 1988 l-19 -23 23 19 c12 11 22 21 22 23 0 8 -8 2 -26 -19z"/>
<path d="M3459 1903 c-13 -16 -12 -17 4 -4 9 7 17 15 17 17 0 8 -8 3 -21 -13z"/>
<path d="M4103 1873 c9 -2 23 -2 30 0 6 3 -1 5 -18 5 -16 0 -22 -2 -12 -5z"/>
<path d="M3385 1824 c-9 -15 -12 -23 -6 -20 11 7 35 46 28 46 -3 0 -12 -12
-22 -26z"/>
<path d="M3320 1750 c-6 -11 -8 -20 -6 -20 3 0 10 9 16 20 6 11 8 20 6 20 -3
0 -10 -9 -16 -20z"/>
<path d="M2227 1723 c-4 -3 -7 -11 -7 -17 0 -6 5 -5 12 2 7 7 18 12 25 12 20
0 15 -28 -8 -48 -11 -9 -25 -25 -30 -34 -9 -16 -5 -18 33 -17 30 2 35 3 16 6
-34 5 -34 8 -3 44 13 16 22 36 19 44 -6 15 -45 21 -57 8z"/>
<path d="M3200 1691 c0 -5 9 -7 20 -4 22 6 29 -22 8 -30 -9 -3 -7 -9 6 -19 10
-8 16 -20 12 -26 -10 -16 -33 -15 -39 1 -2 6 -8 9 -12 4 -14 -12 11 -29 36
-25 21 3 24 9 25 43 0 22 -1 46 -4 53 -5 14 -52 17 -52 3z"/>
<path d="M3166 1563 c-6 -14 -5 -15 5 -6 7 7 10 15 7 18 -3 3 -9 -2 -12 -12z"/>
<path d="M3125 1519 c-4 -6 -5 -12 -2 -15 2 -3 7 2 10 11 7 17 1 20 -8 4z"/>
<path d="M3629 1473 c-13 -16 -12 -17 4 -4 16 13 21 21 13 21 -2 0 -10 -8 -17
-17z"/>
<path d="M3569 1423 c-13 -16 -12 -17 4 -4 16 13 21 21 13 21 -2 0 -10 -8 -17
-17z"/>
<path d="M3529 1393 c-13 -16 -12 -17 4 -4 16 13 21 21 13 21 -2 0 -10 -8 -17
-17z"/>
<path d="M3489 1363 c-13 -16 -12 -17 4 -4 16 13 21 21 13 21 -2 0 -10 -8 -17
-17z"/>
<path d="M2942 1349 c-5 -13 -20 -53 -32 -87 -22 -60 -25 -63 -49 -57 -74 19
-111 17 -165 -9 -41 -20 -57 -35 -71 -65 -25 -56 -22 -115 9 -162 93 -139 328
-77 328 87 0 32 4 44 16 47 12 3 10 5 -5 6 -13 0 -23 5 -23 11 0 5 -14 25 -31
44 l-30 35 77 57 c68 50 74 58 58 67 -11 6 -22 15 -26 21 -4 6 -8 7 -8 2 0 -5
-9 -1 -20 9 -19 17 -20 17 -28 -6z m-68 -172 c43 -24 76 -76 76 -120 0 -112
-146 -184 -252 -125 -43 25 -78 80 -78 124 0 112 147 182 254 121z"/>
<path d="M2695 1120 c-4 -6 3 -10 14 -10 18 0 21 -6 21 -50 0 -27 5 -50 10
-50 6 0 10 23 10 50 l0 50 35 0 35 0 0 -50 c0 -38 4 -50 15 -50 11 0 15 12 15
50 0 39 4 50 16 50 8 0 13 4 9 10 -3 5 -44 9 -90 9 -46 0 -87 -4 -90 -9z"/>
<path d="M3384 1294 c-18 -14 -18 -15 4 -4 12 6 22 13 22 15 0 8 -5 6 -26 -11z"/>
<path d="M3275 1234 c-44 -25 -71 -43 -60 -39 26 8 145 75 145 80 0 7 2 8 -85
-41z"/>
<path d="M2580 1226 c0 -2 8 -10 18 -17 15 -13 16 -12 3 4 -13 16 -21 21 -21
13z"/>
<path d="M3120 1160 c-8 -5 -10 -10 -5 -10 6 0 17 5 25 10 8 5 11 10 5 10 -5
0 -17 -5 -25 -10z"/>
<path d="M3042 1133 c-24 -8 -41 -17 -39 -19 4 -5 97 26 97 32 0 6 -11 4 -58
-13z"/>
</g>
</svg>
